<?xml version="1.0" encoding="UTF-8"?><svg id="Layer_2" xmlns="http://www.w3.org/2000/svg" viewBox="0 0 1020.93 232.93"><defs><style>.cls-1{fill:#000;}.cls-1,.cls-2{stroke-width:0px;}.cls-2{fill:#fff;opacity:.9;}</style></defs><g id="Layer_1-2"><path class="cls-1" d="M376.62,201.42c-1.95-5.92-3.96-11.78-6.05-17.56-2.09-5.78-4.1-11.7-6.05-17.77h-60.9c-1.95,6.07-3.93,12.03-5.95,17.88-2.02,5.85-4,11.67-5.94,17.45h-27.26c5.4-16.04,10.53-30.85,15.38-44.43,4.85-13.58,9.6-26.44,14.24-38.58,4.64-12.14,9.25-23.7,13.82-34.68,4.57-10.98,9.29-21.82,14.14-32.51h25.02c4.85,10.7,9.57,21.53,14.15,32.51,4.58,10.98,9.19,22.54,13.84,34.68,4.65,12.14,9.43,25,14.36,38.58,4.92,13.58,10.09,28.39,15.5,44.43h-28.3ZM334.07,80.26c-3.19,7.66-6.83,16.98-10.92,27.96-4.09,10.98-8.36,22.9-12.79,35.76h47.43c-4.44-12.86-8.74-24.85-12.9-35.98-4.16-11.13-7.77-20.37-10.82-27.74Z"/><path class="cls-1" d="M462.75,49.69c20.8,0,36.72,3.98,47.75,11.92,11.03,7.95,16.54,20.09,16.54,36.41,0,20.37-9.64,34.18-28.92,41.4,2.63,3.33,5.62,7.37,8.95,12.14,3.33,4.77,6.73,9.94,10.19,15.5,3.47,5.56,6.79,11.27,9.99,17.12,3.19,5.85,6.03,11.6,8.53,17.23h-29.33c-2.64-5.2-5.48-10.44-8.53-15.71-3.05-5.27-6.14-10.4-9.26-15.39-3.12-4.99-6.21-9.68-9.26-14.09-3.05-4.41-5.9-8.34-8.53-11.81-1.94.15-3.61.22-4.99.22h-16.64v56.79h-26.21V53.38c6.38-1.44,13.18-2.42,20.39-2.93,7.21-.5,13.66-.76,19.35-.76ZM464.62,73.32c-5.55,0-10.68.22-15.39.65v48.55h11.44c6.38,0,11.99-.36,16.85-1.08,4.85-.72,8.91-2.02,12.17-3.9,3.26-1.88,5.72-4.41,7.39-7.59,1.66-3.18,2.5-7.22,2.5-12.14,0-4.62-.83-8.52-2.5-11.7-1.66-3.18-4.06-5.71-7.18-7.59-3.12-1.88-6.83-3.21-11.13-4.01-4.3-.79-9.02-1.19-14.15-1.19Z"/><path class="cls-1" d="M642.29,201.42c-3.61-5.78-7.77-11.85-12.48-18.21-4.72-6.36-9.68-12.5-14.88-18.42-5.2-5.92-10.58-11.56-16.12-16.91-5.55-5.34-11.03-9.97-16.43-13.87v67.41h-26.21V51.21h26.21v61.99c4.58-4.77,9.36-9.86,14.36-15.28,4.99-5.42,9.95-10.91,14.87-16.47,4.92-5.56,9.6-10.95,14.04-16.15,4.44-5.2,8.46-9.9,12.07-14.09h31.42c-4.58,5.49-9.44,11.2-14.56,17.12-5.13,5.93-10.4,11.89-15.81,17.88-5.41,6-10.85,11.96-16.33,17.88-5.48,5.93-10.85,11.56-16.12,16.91,5.82,4.63,11.75,10.01,17.79,16.15,6.03,6.14,11.96,12.72,17.79,19.72,5.83,7.01,11.41,14.31,16.75,21.89,5.34,7.59,10.23,15.14,14.67,22.65h-31Z"/><path class="cls-1" d="M718.43,54.9c0,4.91-1.53,8.82-4.58,11.7-3.05,2.89-6.66,4.34-10.82,4.34s-7.98-1.44-11.03-4.34c-3.05-2.89-4.58-6.79-4.58-11.7s1.52-9.03,4.58-11.92c3.05-2.89,6.73-4.33,11.03-4.33s7.77,1.45,10.82,4.33c3.05,2.89,4.58,6.87,4.58,11.92ZM715.73,201.42h-25.17v-113.36h25.17v113.36Z"/><path class="cls-1" d="M790.23,201.42c-10.41-23.41-20.44-47.9-30.08-73.48-9.64-25.58-18.63-51.15-26.95-76.73h28.93c3.34,10.12,6.74,20.45,10.22,31,3.48,10.55,6.95,20.92,10.43,31.1,3.47,10.19,6.95,20.05,10.43,29.59,3.48,9.54,6.88,18.28,10.22,26.23,3.2-7.94,6.53-16.65,10.01-26.12,3.47-9.46,6.98-19.32,10.53-29.59,3.54-10.26,7.05-20.66,10.53-31.21,3.48-10.55,6.81-20.88,10.01-31h28.09c-8.49,25.58-17.54,51.15-27.14,76.73-9.61,25.58-19.63,50.07-30.07,73.48h-25.16Z"/><path class="cls-1" d="M1020.93,126.21c0,12.86-1.84,24.21-5.51,34.03-3.68,9.83-8.67,18.03-14.98,24.6-6.31,6.58-13.7,11.53-22.16,14.85-8.46,3.32-17.48,4.98-27.05,4.98s-18.62-1.66-27.15-4.98c-8.53-3.32-15.95-8.27-22.26-14.85-6.31-6.57-11.34-14.77-15.08-24.6-3.75-9.82-5.62-21.17-5.62-34.03s1.87-24.17,5.62-33.92c3.74-9.75,8.84-17.95,15.29-24.6,6.45-6.64,13.9-11.63,22.37-14.96,8.46-3.32,17.4-4.99,26.84-4.99s18.38,1.66,26.84,4.99c8.46,3.33,15.84,8.31,22.16,14.96,6.31,6.65,11.34,14.85,15.08,24.6,3.75,9.75,5.62,21.06,5.62,33.92ZM908.37,126.21c0,8.24.97,15.71,2.91,22.43,1.94,6.72,4.75,12.43,8.43,17.12,3.67,4.7,8.15,8.34,13.42,10.95,5.27,2.6,11.24,3.9,17.89,3.9s12.41-1.3,17.68-3.9c5.27-2.6,9.74-6.25,13.42-10.95,3.67-4.69,6.48-10.4,8.43-17.12,1.94-6.72,2.91-14.2,2.91-22.43s-.97-15.71-2.91-22.43c-1.94-6.72-4.75-12.43-8.43-17.12-3.68-4.69-8.15-8.34-13.42-10.95-5.27-2.6-11.17-3.9-17.68-3.9s-12.62,1.3-17.89,3.9c-5.27,2.6-9.74,6.29-13.42,11.05-3.68,4.77-6.49,10.48-8.43,17.12-1.94,6.65-2.91,14.09-2.91,22.32Z"/><path class="cls-2" d="M146.02,4.52c15.12,0,27.43,12.3,27.43,27.43v30.67c0,15.12-12.3,27.43-27.43,27.43h-60.53c-15.12,0-27.43-12.3-27.43-27.43v-30.67c0-15.12,12.3-27.43,27.43-27.43h60.53"/><path class="cls-1" d="M145.94,4.37c15.12,0,27.43,12.3,27.43,27.43v30.67c0,15.12-12.3,27.43-27.43,27.43h-60.53c-15.12,0-27.43-12.3-27.43-27.43v-30.67c0-15.12,12.3-27.43,27.43-27.43h60.53M145.94,0h-60.53c-17.56,0-31.8,14.24-31.8,31.8v30.67c0,17.56,14.24,31.8,31.8,31.8h60.53c17.56,0,31.8-14.24,31.8-31.8v-30.67c0-17.56-14.24-31.8-31.8-31.8h0Z"/><path class="cls-1" d="M167.46,28.72c13.79,0,25,11.22,25,25v62.62c0,13.79-11.22,25-25,25h-102.6c-13.79,0-25-11.22-25-25v-62.62c0-13.79,11.22-25,25-25h102.6M167.46,21.93h-102.6c-17.56,0-31.8,14.24-31.8,31.8v62.62c0,17.56,14.24,31.8,31.8,31.8h102.6c17.56,0,31.8-14.24,31.8-31.8v-62.62c0-17.56-14.24-31.8-31.8-31.8h0Z"/><path class="cls-2" d="M167.08,28.83c13.79,0,25,11.22,25,25v62.62c0,13.79-11.22,25-25,25h-102.6c-13.79,0-25-11.22-25-25v-62.62c0-13.79,11.22-25,25-25h102.6"/><path class="cls-2" d="M200.88,65.94c12.18,0,22.09,9.91,22.09,22.09v113.3c0,12.18-9.91,22.09-22.09,22.09H31.54c-12.18,0-22.09-9.91-22.09-22.09v-113.3c0-12.18,9.91-22.09,22.09-22.09h169.33"/><path class="cls-1" d="M201.13,65.74c12.18,0,22.09,9.91,22.09,22.09v113.3c0,12.18-9.91,22.09-22.09,22.09H31.8c-12.18,0-22.09-9.91-22.09-22.09v-113.3c0-12.18,9.91-22.09,22.09-22.09h169.33M201.13,56.04H31.8c-17.56,0-31.8,14.24-31.8,31.8v113.3c0,17.56,14.24,31.8,31.8,31.8h169.33c17.56,0,31.8-14.24,31.8-31.8v-113.3c0-17.56-14.24-31.8-31.8-31.8h0Z"/></g></svg>